<?xml version="1.0" encoding="utf-8"?>
<!-- Generator: Adobe Illustrator 12.0.1, SVG Export Plug-In  -->
<!DOCTYPE svg PUBLIC "-//W3C//DTD SVG 1.1//EN" "http://www.w3.org/Graphics/SVG/1.1/DTD/svg11.dtd" [
	<!ENTITY ns_flows "http://ns.adobe.com/Flows/1.0/">
	<!ENTITY ns_svg "http://www.w3.org/2000/svg">
	<!ENTITY ns_xlink "http://www.w3.org/1999/xlink">
]>
<svg  version="1.1" xmlns="&ns_svg;" xmlns:xlink="&ns_xlink;" xmlns:a="http://ns.adobe.com/AdobeSVGViewerExtensions/3.0/"
	 width="234" height="72" viewBox="0 0 234 72" enable-background="new 0 0 234 72" xml:space="preserve">
<defs>
</defs>
<polygon fill="#273471" points="132.736,14.583 106.121,14.583 98.137,22.567 98.137,49.183 106.121,57.167 132.736,57.167 
	140.721,49.183 140.721,41.197 138.059,38.531 124.753,38.531 124.753,41.197 114.104,41.197 114.104,30.551 124.753,30.551 
	124.753,33.181 138.059,33.181 140.721,30.551 140.721,22.567 "/>
<polygon fill="#273471" points="52.892,14.583 42.246,14.583 39.584,17.245 39.584,27.89 26.278,14.583 15.632,14.583 
	12.969,17.245 12.969,54.505 15.632,57.167 26.278,57.167 28.939,54.505 28.939,43.859 42.246,57.167 52.892,57.167 55.553,54.505 
	55.553,17.245 "/>
<polygon fill="#273471" points="71.522,57.165 82.168,57.165 84.83,54.503 84.83,46.52 98.137,33.214 98.137,17.243 95.477,14.583 
	84.83,14.583 82.168,17.243 82.168,22.567 76.846,27.89 71.522,22.567 71.522,17.243 68.861,14.583 58.214,14.583 55.553,17.243 
	55.553,33.214 68.861,46.52 68.861,54.503 "/>
<path fill="#273471" d="M137.144,16.848h-0.454v-1.885h-0.74v-0.38h1.935v0.38h-0.74V16.848z M140.713,16.848h-0.409v-1.823
	l-0.628,1.823h-0.361l-0.635-1.823v1.823h-0.417v-2.265h0.653l0.572,1.623l0.578-1.623h0.646V16.848"/>
<path fill="#273471" d="M151.313,46.487h5.864c2.82,0,3.42,1.59,3.42,2.685c0,1.08-0.524,1.666-1.319,2.1
	c0.96,0.33,1.859,1.096,1.859,2.671c0,2.146-1.859,3.255-3.75,3.255h-6.074V46.487z M154.612,50.657h1.74
	c0.689,0,1.125-0.194,1.125-0.886c0-0.539-0.45-0.734-1.125-0.734h-1.74V50.657z M154.612,54.647h1.935
	c0.69,0,1.29-0.195,1.29-1.021c0-0.63-0.375-0.975-1.155-0.975h-2.069V54.647z"/>
<path fill="#273471" d="M170.482,57.197h-2.865v-0.99h-0.03c-0.555,0.78-1.35,1.186-2.534,1.186c-1.396,0-2.671-0.855-2.671-2.641
	v-5.34h2.971v4.08c0,0.9,0.104,1.53,0.975,1.53c0.51,0,1.186-0.255,1.186-1.5v-4.11h2.97V57.197z"/>
<path fill="#273471" d="M175.132,48.572h-2.97v-2.085h2.97V48.572z M172.162,49.412h2.97v7.785h-2.97V49.412z"/>
<path fill="#273471" d="M176.887,46.487h2.97v10.71h-2.97V46.487z"/>
<path fill="#273471" d="M189.651,57.197h-2.865v-0.855h-0.03c-0.375,0.496-0.824,1.051-2.279,1.051
	c-2.205,0-3.271-2.176-3.271-4.125c0-1.83,0.705-4.051,3.315-4.051c0.885,0,1.68,0.391,2.13,1.051h0.03v-3.78h2.97V57.197z
	 M185.481,51.377c-1.065,0-1.306,1.006-1.306,1.92c0,0.93,0.24,1.936,1.306,1.936c1.064,0,1.305-1.006,1.305-1.936
	C186.786,52.383,186.546,51.377,185.481,51.377z"/>
<path fill="#273471" d="M194.302,48.572h-2.97v-2.085h2.97V48.572z M191.332,49.412h2.97v7.785h-2.97V49.412z"/>
<path fill="#273471" d="M195.996,49.412h2.865v0.99h0.03c0.555-0.78,1.35-1.186,2.535-1.186c1.395,0,2.67,0.855,2.67,2.641v5.34
	h-2.97v-4.08c0-0.9-0.105-1.529-0.976-1.529c-0.51,0-1.185,0.254-1.185,1.5v4.109h-2.971V49.412z"/>
<path fill="#273471" d="M213.651,56.192c0,1.545-0.405,3.72-4.05,3.72c-1.846,0-3.795-0.494-4.065-2.595h2.94
	c0.029,0.075,0.104,0.18,0.165,0.271c0.18,0.27,0.495,0.569,0.87,0.569c0.96,0,1.17-1.14,1.17-1.785v-0.72h-0.03
	c-0.48,0.689-1.2,1.08-2.085,1.08c-2.295,0-3.33-1.71-3.33-3.795c0-2.025,1.155-3.721,3.375-3.721c0.87,0,1.695,0.346,2.04,1.141
	h0.03v-0.945h2.97V56.192z M209.541,54.827c1.096,0,1.215-1.05,1.215-1.92c0-0.854-0.42-1.53-1.29-1.53
	c-0.84,0-1.26,0.721-1.26,1.545C208.206,53.807,208.477,54.827,209.541,54.827z"/>
<path fill="#273471" d="M219.666,51.678c-0.015-0.256-0.149-0.451-0.345-0.586c-0.18-0.149-0.42-0.225-0.66-0.225
	c-0.42,0-0.899,0.09-0.899,0.6c0,0.226,0.18,0.33,0.345,0.405c0.495,0.21,1.62,0.271,2.61,0.601
	c0.989,0.314,1.859,0.899,1.859,2.175c0,2.159-2.069,2.745-3.96,2.745c-1.83,0-3.84-0.735-3.885-2.745h2.835
	c0.015,0.271,0.135,0.495,0.36,0.69c0.149,0.135,0.435,0.225,0.795,0.225c0.39,0,1.005-0.15,1.005-0.6
	c0-0.451-0.255-0.586-1.635-0.826c-2.266-0.39-3.181-1.109-3.181-2.444c0-1.966,2.115-2.476,3.676-2.476
	c1.68,0,3.704,0.465,3.779,2.461H219.666z"/>
<rect id="_x3C_Slice_x3E__7_" fill="none" width="234" height="72"/>
</svg>
